<svg xmlns="http://www.w3.org/2000/svg" viewBox="0 0 1200 675">
  <rect width="1200" height="675" fill="#f4f1ea"/>
  <g opacity="0.5">
    <circle cx="180" cy="120" r="2" fill="#1f4d3d"/>
    <circle cx="320" cy="90" r="2" fill="#1f4d3d"/>
    <circle cx="260" cy="200" r="2" fill="#1f4d3d"/>
    <circle cx="1020" cy="140" r="2" fill="#1f4d3d"/>
    <circle cx="1100" cy="230" r="2" fill="#1f4d3d"/>
    <circle cx="950" cy="260" r="2" fill="#1f4d3d"/>
    <circle cx="150" cy="520" r="2" fill="#1f4d3d"/>
    <circle cx="260" cy="580" r="2" fill="#1f4d3d"/>
    <circle cx="1050" cy="550" r="2" fill="#1f4d3d"/>
    <line x1="180" y1="120" x2="320" y2="90" stroke="#1f4d3d" stroke-width="1" opacity="0.3"/>
    <line x1="320" y1="90" x2="260" y2="200" stroke="#1f4d3d" stroke-width="1" opacity="0.3"/>
    <line x1="180" y1="120" x2="260" y2="200" stroke="#1f4d3d" stroke-width="1" opacity="0.3"/>
    <line x1="1020" y1="140" x2="1100" y2="230" stroke="#1f4d3d" stroke-width="1" opacity="0.3"/>
    <line x1="1100" y1="230" x2="950" y2="260" stroke="#1f4d3d" stroke-width="1" opacity="0.3"/>
    <line x1="1020" y1="140" x2="950" y2="260" stroke="#1f4d3d" stroke-width="1" opacity="0.3"/>
    <line x1="150" y1="520" x2="260" y2="580" stroke="#1f4d3d" stroke-width="1" opacity="0.3"/>
    <line x1="1050" y1="550" x2="950" y2="260" stroke="#1f4d3d" stroke-width="1" opacity="0.2"/>
  </g>
  <g transform="translate(600, 260)">
    <polygon points="0,-32 32,0 0,32 -32,0" fill="none" stroke="#1f4d3d" stroke-width="5"/>
    <circle cx="0" cy="0" r="5" fill="#1f4d3d"/>
    <line x1="0" y1="0" x2="0" y2="-40" stroke="#1f4d3d" stroke-width="3"/>
    <line x1="0" y1="0" x2="40" y2="0" stroke="#1f4d3d" stroke-width="3"/>
    <line x1="0" y1="0" x2="0" y2="40" stroke="#1f4d3d" stroke-width="3"/>
    <line x1="0" y1="0" x2="-40" y2="0" stroke="#1f4d3d" stroke-width="3"/>
  </g>
  <text x="600" y="360" text-anchor="middle" font-family="Georgia, 'Times New Roman', serif" font-size="64" fill="#1c1a16">Forge</text>
  <text x="600" y="410" text-anchor="middle" font-family="Georgia, 'Times New Roman', serif" font-size="30" font-style="italic" fill="#1f4d3d">a company that runs itself</text>
  <text x="600" y="470" text-anchor="middle" font-family="Courier New, monospace" font-size="15" letter-spacing="2" fill="#6b665b">BUILT ON RITUAL CHAIN</text>
  <text x="600" y="620" text-anchor="middle" font-family="Courier New, monospace" font-size="14" letter-spacing="3" fill="#1f4d3d">RITUAL-FORGE.VERCEL.APP</text>
</svg>
